<svg version="1.1" id="Layer_1" xmlns="http://www.w3.org/2000/svg" xmlns:xlink="http://www.w3.org/1999/xlink" x="0px" y="0px"
     width="100%" viewBox="0 0 496 496" enable-background="new 0 0 496 496" xml:space="preserve">
<defs>
    <linearGradient id="moodTuneGradient" x1="10%" y1="10%" x2="90%" y2="90%">
        <stop offset="0%" style="stop-color:#228CDB; stop-opacity:1" />
        <stop offset="100%" style="stop-color:#4CB944; stop-opacity:1" />
    </linearGradient>
</defs>
<path fill="url(#moodTuneGradient)" opacity="1.000000" stroke="none" 
    d="
M173.031464,340.142212 
    C154.058304,350.934723 135.212982,349.112213 116.686279,340.382904 
    C91.966797,328.735748 75.234039,301.921173 78.504814,270.600159 
    C81.145271,245.315140 93.833481,227.135284 116.049408,215.360184 
    C119.133987,213.725266 120.566109,211.714355 121.235718,208.214661 
    C127.433800,175.820923 153.187744,154.905853 185.679520,155.749374 
    C191.852356,155.909637 198.199448,156.467560 203.698837,159.267090 
    C209.512558,162.226624 212.665329,160.249634 216.664352,155.911484 
    C233.671219,137.462479 255.089478,128.022476 280.092804,127.784134 
    C321.454102,127.389847 355.422668,152.826859 367.225159,192.563370 
    C368.468658,196.750046 370.249664,199.221786 374.570160,200.833389 
    C419.719940,217.674850 436.254333,269.605042 415.406342,308.017242 
    C401.791992,333.101562 380.038422,346.276154 351.249451,347.055359 
    C342.925537,347.280701 334.588226,347.156647 326.259491,347.030792 
    C301.980011,346.663940 284.938171,329.388702 284.860840,305.026642 
    C284.789429,282.534668 284.851959,260.042297 284.808136,237.550201 
    C284.804718,235.790421 285.366486,233.900360 283.907654,231.932388 
    C280.693390,233.028625 279.888458,236.066040 278.723175,238.630783 
    C269.426422,259.092712 260.226227,279.598511 250.955887,300.072479 
    C247.215958,308.332275 239.646072,311.562256 232.181259,308.267334 
    C228.761032,306.757660 226.691086,304.105988 225.197739,300.802826 
    C216.075485,280.624969 206.942001,260.452148 197.751221,240.305511 
    C196.367081,237.271439 195.555313,233.735168 192.201263,231.911331 
    C190.297867,233.718140 190.991592,235.663406 190.990005,237.379379 
    C190.969299,259.871307 191.177353,282.364655 190.991440,304.854858 
    C190.871872,319.319489 185.654175,331.484924 173.031464,340.142212 
M333.315826,173.189957 
    C316.320435,154.282135 295.285278,146.272141 270.064789,150.174622 
    C244.305374,154.160522 228.380997,170.560287 217.766479,193.866074 
    C215.395264,191.695297 213.798187,190.283340 212.256134,188.813675 
    C199.023514,176.202072 179.818558,173.244888 163.701492,181.834915 
    C148.945663,189.699417 142.037292,202.430420 142.126785,219.045593 
    C142.174103,227.828293 142.148010,227.665939 134.108582,230.467209 
    C114.839317,237.181412 103.069519,250.360550 99.814766,270.779388 
    C95.238625,299.488068 118.146797,326.267395 147.012924,325.893585 
    C161.824005,325.701752 168.981949,318.464142 168.992691,303.607971 
    C169.008972,281.111572 168.913055,258.614685 169.048416,236.119110 
    C169.088394,229.474396 169.276520,222.720642 174.091156,217.261154 
    C185.253677,204.603500 206.325928,208.421524 213.906342,224.636765 
    C218.841980,235.194504 223.321686,245.965027 228.230743,256.535706 
    C231.257401,263.052979 233.682281,269.907776 238.007614,276.392151 
    C238.945786,274.623291 239.628998,273.492981 240.166809,272.297272 
    C247.407730,256.198364 254.449249,240.006653 261.917664,224.014221 
    C266.822266,213.511795 279.001129,207.872040 289.847351,210.425003 
    C301.114777,213.077087 306.305511,220.414749 306.318024,233.804733 
    C306.340118,257.467621 306.297913,281.130585 306.356201,304.793365 
    C306.387634,317.548218 314.524414,325.686157 327.316711,325.792450 
    C335.814453,325.863068 344.317566,325.909424 352.811554,325.697784 
    C382.791321,324.950806 406.805481,296.645782 402.153595,265.793121 
    C398.051788,238.589005 382.049194,222.730179 355.326538,217.434967 
    C351.677124,216.711807 349.980194,215.402985 349.501495,211.459976 
    C347.802460,197.465561 342.978699,184.653091 333.315826,173.189957 
z"/>
<path fill="url(#moodTuneGradient)" opacity="1.000000" stroke="none" 
    d="
M378.260712,269.278931 
    C378.540405,273.983307 376.433380,276.843994 372.933624,279.105835 
    C360.920898,286.869507 348.979187,294.743103 337.013245,302.579102 
    C333.841827,304.655914 330.578247,306.271484 326.785614,304.190704 
    C322.994476,302.110718 321.792206,298.690277 321.801147,294.558197 
    C321.836121,278.414429 321.818665,262.270477 321.777435,246.126709 
    C321.767517,242.241318 322.636688,238.837723 326.273834,236.761703 
    C330.056458,234.602661 333.253326,236.201813 336.458069,238.304367 
    C348.697845,246.334488 360.981659,254.297363 373.246918,262.288574 
    C375.693024,263.882294 377.617126,265.876923 378.260712,269.278931 
z"/>
</svg>